<?xml version="1.0" standalone="no"?>
<!DOCTYPE svg PUBLIC "-//W3C//DTD SVG 20010904//EN"
 "http://www.w3.org/TR/2001/REC-SVG-20010904/DTD/svg10.dtd">
<svg version="1.0" xmlns="http://www.w3.org/2000/svg"
 width="160.000000pt" height="29.000000pt" viewBox="0 0 160.000000 29.000000"
 preserveAspectRatio="xMidYMid meet">

<g transform="translate(0.000000,29.000000) scale(0.100000,-0.100000)"
fill="#000000" stroke="none">
<path d="M490 283 c-31 -12 -60 -47 -60 -73 0 -42 21 -60 95 -81 38 -10 76
-26 85 -35 13 -14 13 -17 -9 -35 -32 -26 -74 -24 -109 6 -30 25 -72 34 -72 14
0 -42 60 -79 129 -79 77 0 121 31 121 85 0 45 -28 70 -94 85 -83 19 -86 20
-86 40 0 40 62 52 103 20 29 -23 67 -27 67 -7 0 30 -49 60 -102 63 -29 2 -60
1 -68 -3z"/>
<path d="M1214 276 c-63 -28 -94 -101 -74 -175 19 -71 94 -112 177 -96 35 6
93 53 93 74 0 18 -40 12 -67 -9 -25 -20 -76 -26 -108 -14 -14 6 -45 53 -45 69
0 3 52 5 115 5 113 0 115 0 115 23 0 12 -9 40 -19 63 -30 66 -112 92 -187 60z
m125 -62 c12 -15 21 -31 21 -35 0 -5 -36 -9 -80 -9 -68 0 -80 2 -80 17 0 31
31 53 76 53 34 0 47 -5 63 -26z"/>
<path d="M0 145 l0 -135 30 0 30 0 0 135 0 135 -30 0 -30 0 0 -135z"/>
<path d="M120 145 l0 -135 30 0 30 0 0 115 0 115 75 0 75 0 0 -115 0 -115 30
0 30 0 0 135 0 135 -135 0 -135 0 0 -135z"/>
<path d="M710 145 l0 -135 25 0 25 0 0 135 0 135 -25 0 -25 0 0 -135z"/>
<path d="M820 144 l0 -136 110 4 c108 3 110 3 141 35 61 60 49 182 -21 218
-20 10 -59 15 -130 15 l-100 0 0 -136z m205 71 c32 -31 35 -101 6 -136 -15
-19 -30 -24 -85 -27 l-66 -4 0 96 0 96 60 0 c51 0 65 -4 85 -25z"/>
<path d="M1450 145 l0 -135 30 0 30 0 0 115 0 115 45 0 c38 0 45 3 45 20 0 18
-7 20 -75 20 l-75 0 0 -135z"/>
</g>
</svg>
